<?xml version="1.0" encoding="UTF-8" standalone="no"?>
<svg
   xmlns:dc="http://purl.org/dc/elements/1.1/"
   xmlns:cc="http://creativecommons.org/ns#"
   xmlns:rdf="http://www.w3.org/1999/02/22-rdf-syntax-ns#"
   xmlns:svg="http://www.w3.org/2000/svg"
   xmlns="http://www.w3.org/2000/svg"
   height="100"
   width="100"
   id="svg2"
   y="0px"
   x="0px"
   version="1.1"
   viewBox="0 0 100 100">
  <metadata
     id="metadata16">
    <rdf:RDF>
      <cc:Work
         rdf:about="">
        <dc:format>image/svg+xml</dc:format>
        <dc:type
           rdf:resource="http://purl.org/dc/dcmitype/StillImage" />
        <dc:title></dc:title>
      </cc:Work>
    </rdf:RDF>
  </metadata>
  <defs
     id="defs14" />
  <g
     transform="translate(0.36860676,1.0795644)"
     id="g4"
     style="display:inline;opacity:1">
    <path
       id="path6"
       d="m 66.431641,10.193359 c -2.328524,0.07221 -4.6116,1.138743 -6.140625,3.111329 -0.932239,1.202674 -1.457995,2.592608 -1.619141,4.009765 l -4.789063,0.140625 c -0.0066,-0.01882 -0.01087,-0.03784 -0.01758,-0.05664 C 52.3746,13.219351 47.729869,11.019133 43.550781,12.509766 l -5.380859,1.919922 c -4.179088,1.490633 -6.383212,6.133411 -4.892578,10.3125 1.173781,3.29077 4.305034,5.346146 7.623047,5.347656 l 0.65039,6.742187 -4.27539,1.525391 c -1.231011,0.439088 -2.284755,1.15679 -3.128907,2.050781 l -3.794922,-2.076172 c 1.106524,-3.02611 0.340227,-6.56746 -2.205078,-8.826172 -3.318685,-2.945011 -8.44952,-2.64095 -11.394531,0.677735 l -3.792969,4.27539 c -2.945011,3.318686 -2.638997,8.44952 0.679688,11.394532 1.584629,1.406205 3.582965,2.062336 5.558594,2.011718 l 0.480468,4.019532 c -0.248925,0.241094 -0.478239,0.505427 -0.660156,0.816406 l -3.771484,6.447266 c -1.095887,1.873368 -0.445635,4.347472 1.427734,5.443359 l 38.50586,22.525391 c 1.873368,1.095887 4.349424,0.44954 5.445312,-1.423829 l 3.771484,-6.447265 c 1.095888,-1.87337 0.445635,-4.349426 -1.427734,-5.445313 L 24.462891,51.275391 c -0.279299,-0.163385 -0.573514,-0.275719 -0.873047,-0.363282 l -0.496094,-4.15039 c 0.7087,-0.415868 1.366682,-0.944397 1.939453,-1.589844 l 3.101563,-3.494141 4.060546,2.222657 c -0.407401,1.525404 -0.377613,3.181675 0.189454,4.771484 1.490634,4.179088 6.135365,6.381258 10.314453,4.890625 l 5.382812,-1.919922 c 4.179088,-1.490633 6.379307,-6.135365 4.888672,-10.314453 -1.157639,-3.245519 -4.217918,-5.290169 -7.484375,-5.347656 l -0.654297,-6.789063 4.142578,-1.476562 c 2.837716,-1.012181 4.758703,-3.479943 5.236329,-6.267578 l 5.001953,-0.148438 c 0.51604,1.273405 1.356087,2.432791 2.513671,3.330078 l 4.515626,3.5 c 0.469874,0.364218 0.9688,0.663574 1.486328,0.908203 l -0.759766,6.929688 -1.757812,0.443359 c -2.104296,0.531433 -3.4162,2.729689 -2.884766,4.833985 L 73.25,84.498047 c 0.531433,2.104294 2.729688,3.416199 4.833984,2.884765 l 7.242188,-1.830078 c 2.104296,-0.531433 3.414245,-2.72969 2.882812,-4.833984 L 77.287109,37.466797 c -0.531434,-2.104296 -2.729688,-3.4162 -4.833984,-2.884766 l -1.347656,0.339844 0.564453,-5.134766 c 2.2432,-0.137327 4.421093,-1.188404 5.896484,-3.091797 2.718269,-3.506819 2.071272,-8.60595 -1.435547,-11.324218 l -4.515625,-3.5 c -1.534233,-1.189243 -3.37252,-1.733901 -5.183593,-1.677735 z m 0.5,3.97461 c 0.778428,0.05467 1.555602,0.339092 2.234375,0.865234 l 4.513672,3.5 c 1.810061,1.403046 2.129609,3.900877 0.726562,5.710938 -0.605705,0.781415 -1.420139,1.266088 -2.291016,1.472656 l 0.408204,-3.712891 a 2.0002,2.0002 0 0 0 -1.996094,-2.246094 2.0002,2.0002 0 0 0 -1.980469,1.810547 l -0.332031,3.03125 -4.039063,-3.130859 c -0.120794,-0.09363 -0.216793,-0.203766 -0.324219,-0.306641 l 1.921876,-0.05664 A 2.0002,2.0002 0 1 0 65.65625,17.107422 l -2.929688,0.08594 c 0.140192,-0.503782 0.380391,-0.992858 0.726563,-1.439453 0.876904,-1.131288 2.181135,-1.677054 3.478516,-1.585937 z m -20.421875,1.867187 c 1.158117,0.05819 2.216624,0.626207 2.935546,1.550782 l -2.003906,0.05859 a 2.0002,2.0002 0 1 0 0.117188,3.998047 l 2.507812,-0.07422 c -0.405522,1.066513 -1.247541,1.955159 -2.435547,2.378907 l -3.195312,1.138672 -0.302735,-3.134766 a 2.0002,2.0002 0 0 0 -2.015624,-1.835938 2.0002,2.0002 0 0 0 -1.964844,2.21875 l 0.363281,3.757813 c -1.537571,-0.124323 -2.908388,-1.116874 -3.470703,-2.693359 -0.769397,-2.157055 0.311695,-4.431775 2.46875,-5.201172 l 5.380859,-1.919922 c 0.539264,-0.19235 1.086448,-0.268755 1.615235,-0.242188 z M 22.544922,31.455078 c 1.032754,-0.06126 2.090788,0.282928 2.947266,1.042969 1.15518,1.025111 1.580571,2.498598 1.28125,3.876953 l -2.777344,-1.521484 a 2.0002,2.0002 0 0 0 -0.955078,-0.259766 2.0002,2.0002 0 0 0 -0.964844,3.767578 l 2.458984,1.345703 -2.011718,2.267578 -0.179688,-1.498047 A 2.0002,2.0002 0 0 0 20.285156,38.6875 2.0002,2.0002 0 0 0 18.371094,40.951172 l 0.349609,2.93164 c -0.86121,-0.06145 -1.712768,-0.388754 -2.425781,-1.021484 -1.712954,-1.520082 -1.863831,-4.035093 -0.34375,-5.748047 l 3.792969,-4.27539 c 0.76004,-0.856478 1.768026,-1.321548 2.800781,-1.382813 z m 50.867187,7.009766 1.845703,7.3125 -7.207031,1.800781 -1.841797,-7.294922 7.203125,-1.818359 z M 45.875,40.001953 c 1.479158,0.172588 2.783068,1.141819 3.328125,2.669922 0.769397,2.157056 -0.307789,4.433728 -2.464844,5.203125 l -5.382812,1.919922 c -2.157055,0.769398 -4.433728,-0.309741 -5.203125,-2.466797 -0.165267,-0.463336 -0.228193,-0.930381 -0.230469,-1.388672 l 3.117187,1.707031 a 2.0002,2.0002 0 1 0 1.921876,-3.507812 l -3.060547,-1.675781 c 0.224645,-0.131314 0.462373,-0.246444 0.71875,-0.337891 l 3.328125,-1.1875 0.169922,1.753906 a 2.0002,2.0002 0 1 0 3.980468,-0.382812 L 45.875,40.001953 Z M 76.238281,49.652344 84.326172,81.679688 77.123047,83.5 69.03125,51.455078 76.238281,49.652344 Z m -53.777343,5.085937 6.65039,3.890625 -3.90039,6.322266 -6.501954,-3.802734 3.751954,-6.410157 z m 10.103515,5.910157 28.369141,16.595703 -3.751953,6.410156 -28.517579,-16.681641 3.900391,-6.324218 z"
       style="color:#000000;font-style:normal;font-variant:normal;font-weight:normal;font-stretch:normal;font-size:medium;line-height:normal;font-family:sans-serif;text-indent:0;text-align:start;text-decoration:none;text-decoration-line:none;text-decoration-style:solid;text-decoration-color:#000000;letter-spacing:normal;word-spacing:normal;text-transform:none;direction:ltr;block-progression:tb;writing-mode:lr-tb;baseline-shift:baseline;text-anchor:start;white-space:normal;clip-rule:nonzero;display:inline;overflow:visible;visibility:visible;opacity:1;isolation:auto;mix-blend-mode:normal;color-interpolation:sRGB;color-interpolation-filters:linearRGB;solid-color:#000000;solid-opacity:1;fill:#000000;fill-opacity:1;fill-rule:nonzero;stroke:none;stroke-width:4;stroke-linecap:round;stroke-linejoin:miter;stroke-miterlimit:4;stroke-dasharray:none;stroke-dashoffset:0;stroke-opacity:1;color-rendering:auto;image-rendering:auto;shape-rendering:auto;text-rendering:auto;enable-background:accumulate" />
  </g>
</svg>
