<?xml version="1.0" encoding="UTF-8" standalone="no"?>
<svg
   xmlns:dc="http://purl.org/dc/elements/1.1/"
   xmlns:cc="http://creativecommons.org/ns#"
   xmlns:rdf="http://www.w3.org/1999/02/22-rdf-syntax-ns#"
   xmlns:svg="http://www.w3.org/2000/svg"
   xmlns="http://www.w3.org/2000/svg"
   xmlns:sodipodi="http://sodipodi.sourceforge.net/DTD/sodipodi-0.dtd"
   xmlns:inkscape="http://www.inkscape.org/namespaces/inkscape"
   viewBox="0 0 100 100"
   version="1.1"
   x="0px"
   y="0px"
   id="svg2"
   inkscape:version="0.91 r13725"
   sodipodi:docname="icon-mask.svg"
   width="100"
   height="100">
  <metadata
     id="metadata16">
    <rdf:RDF>
      <cc:Work
         rdf:about="">
        <dc:format>image/svg+xml</dc:format>
        <dc:type
           rdf:resource="http://purl.org/dc/dcmitype/StillImage" />
        <dc:title></dc:title>
      </cc:Work>
    </rdf:RDF>
  </metadata>
  <defs
     id="defs14" />
  <sodipodi:namedview
     pagecolor="#ffffff"
     bordercolor="#666666"
     borderopacity="1"
     objecttolerance="10"
     gridtolerance="10"
     guidetolerance="10"
     inkscape:pageopacity="0"
     inkscape:pageshadow="2"
     inkscape:window-width="980"
     inkscape:window-height="654"
     id="namedview12"
     showgrid="false"
     fit-margin-top="0"
     fit-margin-left="0"
     fit-margin-right="0"
     fit-margin-bottom="0"
     inkscape:zoom="1"
     inkscape:cx="16.132796"
     inkscape:cy="25.151446"
     inkscape:window-x="0"
     inkscape:window-y="0"
     inkscape:window-maximized="0"
     inkscape:current-layer="svg2" />
  <path
     style="opacity:1;fill:#ffffff;fill-opacity:1;stroke:none;stroke-width:4;stroke-linecap:butt;stroke-miterlimit:4;stroke-dasharray:none;stroke-dashoffset:0;stroke-opacity:1"
     d="M 0 0 L 0 100 L 100 100 L 100 0 L 0 0 z M 66.800781 11.273438 C 68.611854 11.217272 70.450142 11.761929 71.984375 12.951172 L 76.5 16.451172 C 80.006819 19.16944 80.653816 24.268572 77.935547 27.775391 C 76.460156 29.678784 74.282263 30.729861 72.039062 30.867188 L 71.474609 36.001953 L 72.822266 35.662109 C 74.926562 35.130675 77.124816 36.442579 77.65625 38.546875 L 88.578125 81.798828 C 89.109558 83.903122 87.799609 86.101379 85.695312 86.632812 L 78.453125 88.462891 C 76.348829 88.994325 74.150574 87.682419 73.619141 85.578125 L 62.695312 42.324219 C 62.163879 40.219923 63.475782 38.021667 65.580078 37.490234 L 67.337891 37.046875 L 68.097656 30.117188 C 67.580128 29.872558 67.081202 29.573202 66.611328 29.208984 L 62.095703 25.708984 C 60.938119 24.811697 60.098071 23.652311 59.582031 22.378906 L 54.580078 22.527344 C 54.102452 25.314979 52.181466 27.782741 49.34375 28.794922 L 45.201172 30.271484 L 45.855469 37.060547 C 49.121926 37.118034 52.182205 39.162684 53.339844 42.408203 C 54.830479 46.587291 52.63026 51.232023 48.451172 52.722656 L 43.068359 54.642578 C 38.889271 56.133211 34.24454 53.931041 32.753906 49.751953 C 32.186839 48.162144 32.157052 46.505873 32.564453 44.980469 L 28.503906 42.757812 L 25.402344 46.251953 C 24.829573 46.8974 24.171591 47.425929 23.462891 47.841797 L 23.958984 51.992188 C 24.258517 52.079751 24.552732 52.192084 24.832031 52.355469 L 63.337891 74.880859 C 65.21126 75.976746 65.861513 78.452802 64.765625 80.326172 L 60.994141 86.773438 C 59.898253 88.646807 57.422196 89.293153 55.548828 88.197266 L 17.042969 65.671875 C 15.1696 64.575988 14.519347 62.101884 15.615234 60.228516 L 19.386719 53.78125 C 19.568636 53.470271 19.79795 53.205938 20.046875 52.964844 L 19.566406 48.945312 C 17.590777 48.995931 15.592441 48.339799 14.007812 46.933594 C 10.689127 43.988582 10.383114 38.857748 13.328125 35.539062 L 17.121094 31.263672 C 20.066105 27.944987 25.19694 27.640926 28.515625 30.585938 C 31.06093 32.844649 31.827227 36.385999 30.720703 39.412109 L 34.515625 41.488281 C 35.359777 40.59429 36.41352 39.876588 37.644531 39.4375 L 41.919922 37.912109 L 41.269531 31.169922 C 37.951518 31.168412 34.820265 29.113036 33.646484 25.822266 C 32.15585 21.643177 34.359974 17.000399 38.539062 15.509766 L 43.919922 13.589844 C 48.09901 12.099211 52.743743 14.299429 54.234375 18.478516 C 54.241085 18.497316 54.245353 18.516336 54.251953 18.535156 L 59.041016 18.394531 C 59.202162 16.977374 59.727917 15.58744 60.660156 14.384766 C 62.189181 12.41218 64.472257 11.345648 66.800781 11.273438 z M 66.814453 15.242188 C 65.683682 15.301076 64.589557 15.844107 63.822266 16.833984 C 63.476094 17.280579 63.235895 17.769655 63.095703 18.273438 L 66.025391 18.1875 A 2.0002 2.0002 0 1 1 66.142578 22.185547 L 64.220703 22.242188 C 64.328129 22.345062 64.424128 22.455198 64.544922 22.548828 L 68.583984 25.679688 L 68.916016 22.648438 A 2.0002 2.0002 0 0 1 70.896484 20.837891 A 2.0002 2.0002 0 0 1 72.892578 23.083984 L 72.484375 26.796875 C 73.355252 26.590307 74.169686 26.105634 74.775391 25.324219 C 76.178438 23.514158 75.858889 21.016327 74.048828 19.613281 L 69.535156 16.113281 C 68.856383 15.587139 68.079209 15.302717 67.300781 15.248047 C 67.138609 15.236657 66.975992 15.233775 66.814453 15.242188 z M 46.878906 17.115234 C 46.350119 17.088667 45.802936 17.165072 45.263672 17.357422 L 39.882812 19.277344 C 37.725758 20.046741 36.644666 22.321461 37.414062 24.478516 C 37.976378 26.055001 39.347195 27.047552 40.884766 27.171875 L 40.521484 23.414062 A 2.0002 2.0002 0 0 1 42.486328 21.195312 A 2.0002 2.0002 0 0 1 44.501953 23.03125 L 44.804688 26.166016 L 48 25.027344 C 49.188006 24.603596 50.030025 23.714951 50.435547 22.648438 L 47.927734 22.722656 A 2.0002 2.0002 0 1 1 47.810547 18.724609 L 49.814453 18.666016 C 49.095531 17.741441 48.037023 17.173424 46.878906 17.115234 z M 22.914062 32.535156 C 21.881307 32.596421 20.873321 33.061491 20.113281 33.917969 L 16.320312 38.193359 C 14.800232 39.906313 14.951109 42.421324 16.664062 43.941406 C 17.377075 44.574136 18.228634 44.901441 19.089844 44.962891 L 18.740234 42.03125 A 2.0002 2.0002 0 0 1 20.654297 39.767578 A 2.0002 2.0002 0 0 1 22.712891 41.556641 L 22.892578 43.054688 L 24.904297 40.787109 L 22.445312 39.441406 A 2.0002 2.0002 0 0 1 23.410156 35.673828 A 2.0002 2.0002 0 0 1 24.365234 35.933594 L 27.142578 37.455078 C 27.441899 36.076723 27.016508 34.603236 25.861328 33.578125 C 25.00485 32.818084 23.946817 32.473896 22.914062 32.535156 z M 73.78125 39.544922 L 66.578125 41.363281 L 68.419922 48.658203 L 75.626953 46.857422 L 73.78125 39.544922 z M 46.244141 41.082031 L 46.466797 43.388672 A 2.0002 2.0002 0 1 1 42.486328 43.771484 L 42.316406 42.017578 L 38.988281 43.205078 C 38.731904 43.296525 38.494176 43.411655 38.269531 43.542969 L 41.330078 45.21875 A 2.0002 2.0002 0 1 1 39.408203 48.726562 L 36.291016 47.019531 C 36.293292 47.477822 36.356217 47.944867 36.521484 48.408203 C 37.290881 50.565259 39.567554 51.644398 41.724609 50.875 L 47.107422 48.955078 C 49.264477 48.185681 50.341663 45.909009 49.572266 43.751953 C 49.027209 42.22385 47.723299 41.254619 46.244141 41.082031 z M 76.607422 50.732422 L 69.400391 52.535156 L 77.492188 84.580078 L 84.695312 82.759766 L 76.607422 50.732422 z M 22.830078 55.818359 L 19.078125 62.228516 L 25.580078 66.03125 L 29.480469 59.708984 L 22.830078 55.818359 z M 32.933594 61.728516 L 29.033203 68.052734 L 57.550781 84.734375 L 61.302734 78.324219 L 32.933594 61.728516 z "
     id="rect4365" />
</svg>
